<svg viewBox="0 0 525.26 132.28" xmlns:xlink="http://www.w3.org/1999/xlink" xmlns="http://www.w3.org/2000/svg" data-name="Layer 1" id="Layer_1">
  <defs>
    <style>
      .cls-1 {
        fill: url(#linear-gradient-4);
      }

      .cls-1, .cls-2, .cls-3, .cls-4 {
        stroke: #5e2c18;
      }

      .cls-1, .cls-2, .cls-3, .cls-4, .cls-5 {
        stroke-miterlimit: 10;
      }

      .cls-1, .cls-3, .cls-4 {
        stroke-width: .89px;
      }

      .cls-6 {
        fill: #83401d;
      }

      .cls-7 {
        filter: url(#drop-shadow-2);
      }

      .cls-2 {
        fill: url(#linear-gradient-3);
        stroke-width: .89px;
      }

      .cls-3 {
        fill: url(#linear-gradient);
      }

      .cls-8 {
        filter: url(#drop-shadow-1);
      }

      .cls-9, .cls-5 {
        fill: #5e2c18;
      }

      .cls-4 {
        fill: url(#linear-gradient-2);
      }

      .cls-5 {
        stroke: #d9a071;
        stroke-width: 1.67px;
      }
    </style>
    <filter filterUnits="userSpaceOnUse" height="149" width="130" y="-3.26" x="-3.09" id="drop-shadow-1">
      <feOffset dy="4.73" dx="4.73"></feOffset>
      <feGaussianBlur stdDeviation="2.37" result="blur"></feGaussianBlur>
      <feFlood flood-opacity=".2" flood-color="#4b2e14"></feFlood>
      <feComposite operator="in" in2="blur"></feComposite>
      <feComposite in="SourceGraphic"></feComposite>
    </filter>
    <linearGradient gradientUnits="userSpaceOnUse" y2="54.46" x2="46.61" y1="73.8" x1="69.65" id="linear-gradient">
      <stop stop-color="#85351d" offset="0"></stop>
      <stop stop-color="#83401d" offset="0"></stop>
      <stop stop-color="#d9a071" offset=".55"></stop>
      <stop stop-color="#f7e8de" offset="1"></stop>
    </linearGradient>
    <linearGradient xlink:href="#linear-gradient" y2="118.51" x2="1.88" y1="129.87" x1="15.42" id="linear-gradient-2"></linearGradient>
    <filter filterUnits="userSpaceOnUse" height="148" width="132" y="-2.26" x="15.91" id="drop-shadow-2">
      <feOffset dy="4.73" dx="4.73"></feOffset>
      <feGaussianBlur stdDeviation="2.37" result="blur-2"></feGaussianBlur>
      <feFlood flood-opacity=".2" flood-color="#4b2e14"></feFlood>
      <feComposite operator="in" in2="blur-2"></feComposite>
      <feComposite in="SourceGraphic"></feComposite>
    </filter>
    <linearGradient gradientUnits="userSpaceOnUse" y2="54.41" x2="89.02" y1="75.76" x1="58.52" id="linear-gradient-3">
      <stop stop-color="#83401d" offset="0"></stop>
      <stop stop-color="#d9a071" offset=".48"></stop>
      <stop stop-color="#dba579" offset=".51"></stop>
      <stop stop-color="#e7c1a4" offset=".66"></stop>
      <stop stop-color="#efd6c3" offset=".8"></stop>
      <stop stop-color="#f5e3d7" offset=".92"></stop>
      <stop stop-color="#f7e8de" offset="1"></stop>
    </linearGradient>
    <linearGradient xlink:href="#linear-gradient-3" y2="124.05" x2="134.01" y1="124.05" x1="117.54" id="linear-gradient-4"></linearGradient>
  </defs>
  <g>
    <path d="M205.38,47.41c-1.33-1.8-3.35-3.52-5.85-4.84-1.89-1-4-1.48-6.14-1.48h-3.02s-2.89,0-2.91,0c-.51,0-1.26.02-2.12.23-.92.22-1.84.51-2.75.89-2.1.88-4.08,1.72-5.93,2.52-1.43.62-3.06.5-4.4-.29-.17-.1-.36-.21-.55-.33-4.26-2.55-8.51-3.82-12.77-3.82-3.32,0-6.55.76-9.67,2.27-7.16,3.48-10.74,8.77-10.74,15.86,0,5.61,3.21,10.87,9.63,15.77,4.35,3.33,9.02,5.94,14.03,7.84.36.14.66-.33.38-.6l-7.97-7.72c-4.16-4.03-6.24-8.3-6.24-12.82,0-2.16.68-4.32,2.03-6.48,3.1-4.9,7.43-7.35,13.01-7.35,4.35,0,6.53.76,6.53,2.27-.03.16-.44.85-1.21,2.08-1.61,2.58-2.6,4.97-2.98,7.16-.17,1.03.46,2.18,1.42,2.58l6.72,2.75c.85.35,1.75-.1,1.97-.99,2.61-10.69,8.89-16.23,18.84-16.63,1.71-.06,3.43.21,5.17.82,3.58,1.26,5.37,3.5,5.37,6.73s-1.32,6.34-3.97,9.25c-2.45,2.71-5.43,5-8.95,6.88-3.3,1.78-6.48,2.84-9.54,3.2-.46.05-.66.59-.34.92,5.04,5.13,7.89,7.7,8.53,7.7.68,0,2.29-.9,4.84-2.71,2.06-1.45,3.6-2.63,4.6-3.53,5.32-4.78,7.98-10.49,7.98-17.14,0-4.62-1-8.28-3-10.99Z" class="cls-6"></path>
    <path d="M235.14,69.44c0,1.84-.65,3.8-1.96,5.89-1.69,2.71-4.15,4.07-7.4,4.07-2.41,0-4.13-1.32-5.18-3.96-.51-1.29-.77-2.54-.77-3.76v-16.33c0-.34-.28-.62-.62-.62h-4.18c-.34,0-.62.28-.62.62v14.47c0,1.99.54,3.83,1.63,5.52,2.38,3.7,5.68,5.55,9.9,5.55,1.33,0,2.48-.13,3.45-.4,1.42-.39,3.1-1.25,5.03-2.58.31-.21.73,0,.73.37v.96c0,.26.15.49.39.6l2.85,1.28c.6.27,1.1.5,1.52.7.47.23,1.02-.12,1.02-.65v-22.44c0-.34-.28-.62-.62-.62h-4.53c-.34,0-.62.28-.62.62v10.7Z" class="cls-6"></path>
    <path d="M268.91,41.08c.79,2.18.95,2.65,1.68,5.2.35,1.23.51,2.65.64,4.05.17,1.81.08,3.33.1,4.4h5.18c-.08-4.12-.36-6.89-.59-8.13-.21-1.16-1.35-5.17-2.51-8.28-.96-2.57-1.69-4.48-3.98-9.74-.11-.26-.38-.44-.67-.44h-4.97c-.11.08-.17.23-.17.45,0,.27.07.38.11.45,2.69,4.99,4.49,10.13,5.17,12.03Z" class="cls-6"></path>
    <path d="M271.33,54.73v9c0,.33-.41.49-.63.25-2.19-2.37-3.57-3.79-4.14-4.26-2.05-1.73-4.09-2.59-6.12-2.59-3.19,0-5.91,1.37-8.16,4.1-2.01,2.43-3.02,4.56-3.04,6.4-.02,2.01.71,4.08,2.19,6.2,1.25,1.8,2.82,3.38,4.72,4.72,2.22,1.57,4.27,2.36,6.14,2.36,2.81,0,5.67-1.78,8.58-5.35.16-.19.47-.09.47.16v2.95c0,.22.13.43.34.52l4.33,1.86c.24.1.5-.07.5-.33v-25.97h-5.18ZM267.83,71.26c-1.16,1.57-2.41,2.9-3.75,3.98-1.93,1.55-3.75,2.33-5.46,2.33s-2.99-.71-4.01-2.13c-.93-1.27-1.39-2.77-1.39-4.49,0-3.15,1.86-5.88,5.57-8.19,1.71-1.06,3.13-1.59,4.27-1.59,1.55,0,3.05.47,4.49,1.42,1.61,1.06,2.42,2.33,2.42,3.81,0,1.31-.71,2.93-2.13,4.86Z" class="cls-6"></path>
    <path d="M312.9,81.02c-.49-2.26-1.3-4.11-2.42-5.57-1.39-1.84-3.09-2.74-5.12-2.7-2.22.04-5.14.94-8.76,2.7-3.07,1.5-5.15,2.25-6.23,2.25-.59,0-1.16-.21-1.71-.64-.55-.43-.83-.92-.85-1.49-.02-.42.25-.96.8-1.62,1.38-1.69,3.97-2.53,7.77-2.53,2.98,0,5.16-.3,6.54-.91,2.09-.91,3.13-2.65,3.13-5.21,0-.66-.07-1.21-.2-1.65-.04-.11-.2-.41-.48-.88-.25-.4-.37-.74-.37-1.02,0-.25.18-.49.54-.74.36-.25.67-.37.94-.37.7,0,1.27.48,1.71,1.45.23.52.39,1.08.48,1.68.04.26.37.35.55.15l2.5-2.86c-.15-.63-.47-1.25-.97-1.88-1.08-1.37-2.22-2.05-3.41-2.05-.74.1-1.25.29-1.54.57l-1.1,1.3c-.49.59-.9.89-1.22.89-.37-.15-.61-.49-.71-1.02-.08-.41-.34-.76-.73-.92h0c-1.03-.42-2.13-.68-3.24-.76l-1.09-.08h0c-7.02.03-10.53,2.21-10.53,6.54,0,1.27.39,2.46,1.17,3.56l1.39,1.96-.06.31c-1.06.1-2.1.53-3.1,1.31-1.12.84-1.68,1.76-1.68,2.76,0,1.82,1.48,3.79,4.44,5.89,1.42,1.01,2.64,1.51,3.64,1.51,1.37,0,3.61-.69,6.74-2.06,3.13-1.37,5.38-2.06,6.74-2.06,1.48,0,2.67.51,3.58,1.52s1.37,2.27,1.37,3.77c0,.85-.32,1.73-.97,2.62-1.48,2.07-3.47,3.1-5.97,3.1-1.01,0-2.46-.64-4.35-1.93-2.22-1.5-3.72-2.43-4.49-2.79-1.46-.66-3.18-1-5.15-1-2.86,0-5.41.79-7.65,2.36-1.99,1.4-3.61,3.15-4.86,5.23-1.37,2.26-2.05,4.52-2.05,6.8,0,.66.04,1.15.11,1.45,1.12-2.39,2.66-4.47,4.64-6.23,4.11-3.66,8.49-5.49,13.14-5.49,2.16,0,4.84.8,8.02,2.39,2.88,1.44,5.08,2.16,6.6,2.16,3.41,0,5.12-1.76,5.12-5.29,0-1.01-.22-2.5-.65-4.49ZM293.21,61.31c1.76-1.38,3.63-2.08,5.6-2.08,2.45,0,3.67,1.15,3.67,3.44,0,1.46-.48,2.76-1.45,3.9-.8.93-1.8,1.74-3.02,2.45-1.37.8-2.59,1.19-3.67,1.17-1.04,0-1.97-.37-2.77-1.11-.81-.74-1.21-1.63-1.21-2.67,0-1.92.95-3.61,2.84-5.09Z" class="cls-6"></path>
    <path d="M322.98,60.01,320.36,61.9v1.83c0,.14.14.24.27.19,1-.36,2.02-.75,3.06-1.19,2.54-1.06,5.34-1.62,8.39-1.68,1.37-.04,2.44.12,3.23.48.74.34,1.5.99,2.29,1.95.09.11.15.26.15.41v2.01c0,.16-.18.25-.31.16-1.61-1.1-3.69-1.66-6.24-1.66-4.48,0-8.22,1.51-11.23,4.52-1.55,1.55-2.33,3.12-2.33,4.69,0,1.4.49,2.67,1.48,3.81,2.03,2.35,4.91,3.53,8.65,3.53,2.71,0,5.09-.48,7.14-1.45.64-.3,1.47-.75,2.47-1.34.23.16.35.5.37,1.02,0,.08.06.16.13.2,2.14.88,3.51,1.45,4.13,1.69.13.05.26-.05.26-.19v-10.66c0-4.84-.41-8.05-1.22-9.64-1.21-2.39-3.95-3.58-8.22-3.58-1.02,0-2.06.1-3.1.28-2.38.43-3.74.71-4.12.85M333.93,74.99c-2.92,1.76-6.14,2.65-9.67,2.65-1.38,0-2.47-.18-3.25-.53-1.19-.54-1.56-2.04-.89-3.15.23-.38.53-.79.9-1.23,2.41-2.88,5.61-4.32,9.61-4.32,1.1,0,2.48.27,4.12.82,1.99.66,2.99,1.41,2.99,2.25s-1.27,1.99-3.81,3.53Z" class="cls-6"></path>
    <path d="M363.38,57.29c-.43.09-.86.22-1.27.36-2.22.77-3.8,1.51-4.72,2.22-.17.13-.41,0-.41-.21v-.89c0-.39-.32-.71-.71-.71h-4.02c-.4,0-.73.33-.73.73v20.16c0,.1.05.19.14.23l4.94,2.57c.17.09.38-.04.38-.23v-11.63c0-3.45,1.7-6.6,5.09-9.44,1.67-1.4,3.23-2.1,4.69-2.1.7,0,1.41.21,2.13.63.83.46,1.25,1.01,1.25,1.65,0,1.21-.66,2.29-1.99,3.24-1.01.73-2.07,1.18-3.19,1.36-.21.03-.3.27-.16.43l3.81,4.32c.08.09.21.12.32.06,1.19-.59,2.32-1.45,3.4-2.59,1.35-1.4,2.02-2.66,2.02-3.78,0-1.31-.47-2.47-1.4-3.5-2.49-2.73-5.69-3.69-9.59-2.88Z" class="cls-6"></path>
    <path d="M429.66,42.78c-.72-.42-6.34-2.71-10.92-2.71-6.99,0-12.92,3.46-17.78,10.39-2.32,3.3-3.48,6.25-3.48,8.87,0,3.46,1.32,6.97,3.97,10.51,2.65,3.54,6.01,6.44,10.09,8.7,4.28,2.38,8.52,3.58,12.74,3.58,2.16,0,4.49-.54,7-1.62,5-2.15,8.13-4.75,9.38-7.78.22-.54-.17-1.13-.75-1.13h-8.92c-.25,0-.47.12-.62.31-2.42,3.12-6.56,4.68-12.41,4.68-3.62,0-6.55-.81-8.77-2.45-2.51-1.83-3.77-4.48-3.77-7.97,0-2.97.9-6.03,2.7-9.2,1.9-3.33,4.41-5.97,7.52-7.92,3.24-2.05,6.73-3.08,10.47-3.08s6.36,1,8.38,2.99c1.75,1.73,2.74,4.05,2.97,6.96.06.78.74,1.36,1.53,1.36h3.74c.58,0,.97-.6.74-1.14-.69-1.63-1.37-2.87-2.04-3.73-.42-.55-1.87-2.37-3.79-4.22-.32-.31-.67-.59-1.03-.85l-3.09-2.25" class="cls-6"></path>
    <path d="M451.01,37.65c.42,0,.82.24.99.63,2.1,4.81,2.3,11.14,2.28,15.15l-.12,27.72c0,.53-.43.95-.96.95h-2.99c-.53-.02-.95-.44-.95-.97l.12-28.28c-.2-6.8-.48-10.58-2.83-14.71-.12-.22.03-.48.27-.48h4.18Z" class="cls-6"></path>
    <path d="M482.83,69.44c0,1.84-.65,3.8-1.96,5.89-1.69,2.71-4.15,4.07-7.4,4.07-2.41,0-4.13-1.32-5.18-3.96-.51-1.29-.77-2.54-.77-3.76v-17.41c0-.23-.19-.42-.42-.42h-4.59c-.23,0-.42.19-.42.42v15.56c0,1.99.54,3.83,1.63,5.52,2.38,3.7,5.68,5.55,9.9,5.55,1.33,0,2.48-.13,3.45-.4,1.44-.39,3.14-1.27,5.1-2.63.28-.19.66,0,.66.34v1.19c0,.17.1.32.25.38l2.99,1.34c.81.36,1.46.66,1.93.9.28.14.6-.07.6-.38v-23.11c0-.23-.19-.42-.42-.42h-4.94c-.23,0-.42.19-.42.42v10.9Z" class="cls-6"></path>
    <path d="M514.87,57.55c-1.48,0-2.96.48-4.44,1.45-1.94,1.26-3.63,2.73-5.09,4.41-.19.22-.54.09-.54-.2v-9.37s-5.18,0-5.18,0v25.05c0,.12.07.24.19.29l4.33,1.87c.21.09.43-.06.43-.29v-4.6c0-.28.34-.42.53-.22,1.62,1.65,2.66,2.65,3.11,3.01,1.59,1.29,3.11,1.93,4.55,1.93,2.82,0,5.61-1.46,8.36-4.39,2.75-2.93,4.12-5.82,4.12-8.66,0-2.46-.94-4.75-2.82-6.85-2.05-2.29-4.57-3.44-7.57-3.44ZM521.36,74.11c-1.12,2.56-2.67,3.84-4.66,3.84-3.15,0-6.2-2.18-9.16-6.54-1.4-2.07-2.11-3.89-2.11-5.46,0-.36.31-.9.94-1.62,1.59-1.8,3.3-2.7,5.12-2.7,2.9,0,5.45,1.15,7.65,3.44,1.97,2.05,2.96,3.95,2.96,5.72,0,1.1-.25,2.21-.74,3.33Z" class="cls-6"></path>
    <path d="M496.24,37.41c2.26,4.13,3.57,11.86,3.39,16.45h5.18c0-5.41-1.76-14.35-3.93-18.37-1.28-2.38-2.68-4.2-4.32-6.04-.13-.14-.31-.22-.5-.22h-5.31c-.22,0-.33.27-.17.42,1.75,1.68,3.91,4.57,5.65,7.76Z" class="cls-6"></path>
  </g>
  <g>
    <path d="M65.25,109.36c-.28,0-.56-.04-.83-.09-2.34-.5-13.68-3.21-28.2-10.9-4.7-2.48-7.75-4.6-10.21-6.64-3.37-2.79-4.87-4.87-5.43-8.3.12-19.51.23-39.02.35-58.54.02-2.55,2.42-4.05,5.22-4.59,22.23-4.27,10.53-4.52,38.98-4.38h1.2c28.2-.14,15.32-.03,39.24,4.38,3.13.58,5.81,2.27,5.83,5.12.11,19.33.23,38.67.34,58-.56,3.43-2.06,5.51-5.43,8.3-2.47,2.04-5.52,4.16-10.21,6.64-14.14,7.49-24.88,10.31-27.43,10.92-.36.09-.73.12-1.11.12l-2.28-.04Z" class="cls-5"></path>
    <g class="cls-8">
      <path d="M107.98,25.84c1.93-1.4,1-4.12,1.76-6.05s2.6-3.25,3.15-5.3c.03-.11-.14-.16-.17-.05-.53,1.93-2.19,3.21-3.02,4.98-.43.93-.49,1.9-.54,2.91-.06,1.22-.21,2.58-1.28,3.36-.09.07,0,.22.09.15h0Z" class="cls-9"></path>
      <g>
        <path d="M104.39,6.32c1.57,1.24,6.02,4.73,8.31,7.86,2.29,3.14-.33,6.49-.33,6.49l-14.84,18.33-25.73,31.72-14.31,17.56s-5.11,6.16-6.6,7.06c-1.49.9-3.38,1.39-6.86.45-3.48-.94-6.18,1.9-6.18,1.9l-8.46,10.3s-9.7,11.85-12.9,15.75c-.55.67-1.51.74-2.18.19l-6.3-5.17c-.67-.55-.78-1.51-.24-2.18,3.2-3.89,12.94-15.72,12.94-15.72l8.46-10.3s2.26-3.2.66-6.43c-1.6-3.23-1.49-5.18-.89-6.81.6-1.63,5.64-7.84,5.64-7.84l14.44-17.45,26.11-31.41,15.09-18.12s2.78-3.22,6.3-1.59c3.52,1.63,7.81,5.32,9.33,6.62" class="cls-3"></path>
        <path d="M1.63,123.93l8.65,7.1c1.38,1.13,3.42.93,4.55-.45l1.53-1.86c1-1.22.83-3.03-.4-4.03l-9.22-7.57c-1.22-1-3.03-.83-4.03.4l-1.53,1.86c-1.13,1.38-.93,3.42.45,4.55Z" class="cls-4"></path>
      </g>
      <path d="M64.41,68.09c-.02-.53.38-1.2.81-1.49.58-.37,1.29-.53,1.91-.84s1.18-.76,1.78-1.13c.42-.26.95-.37,1.12.24.11.39.05.84-.06,1.22-.4,1.41-1.63,2.32-2.53,3.39-.42.49-.71,1.02-1,1.59s-.85,1.36-1.63,1.14-.59-1.51-.53-2.13c.06-.66.13-1.31.13-1.98,0-.11-.18-.11-.18,0,0,.75-.11,1.49-.15,2.24-.04.59-.15,1.49.4,1.9.45.34,1.1.15,1.49-.19.61-.53.82-1.42,1.3-2.07.99-1.34,2.59-2.35,2.94-4.08.1-.5.16-1.45-.48-1.64s-1.37.58-1.86.89-1.01.58-1.54.79c-.4.16-.82.28-1.19.52-.49.32-.93,1.05-.9,1.64,0,.11.18.11.18,0h0Z" class="cls-9"></path>
      <path d="M63.01,67.05c-.08-.96,1.34-1.74,2.07-2.08.99-.46,2.13-.46,3.02-1.14s1.87-1.92,3.18-1.75c1.62.21,1.54,2.59,1.33,3.78s-.59,2.47-.79,3.73c-.1.62-.25,1.21-.61,1.73-.39.56-.87,1.08-1.31,1.6-.36.43-.7.99-1.13,1.35-.51.44-1.67.22-2.31.29-.54.06-1.07.16-1.6.3-.69.18-1.44.47-2.16.24-1.66-.51-1.07-3.31-.57-4.45s.91-2.29.87-3.62c0-.11-.18-.11-.18,0,.02.84-.09,1.68-.38,2.47s-.74,1.55-.88,2.43c-.14.95-.3,2.32.52,3.03,1.04.9,2.66.04,3.8-.15.8-.14,1.56-.08,2.36-.14.61-.05.87-.54,1.24-.98.88-1.06,2.09-2.13,2.41-3.52.16-.72.23-1.45.4-2.17.19-.79.42-1.57.53-2.37.16-1.09.13-2.58-.68-3.44-.74-.78-2.31-.05-3,.48-.73.56-1.26,1.22-2.17,1.52-.72.24-1.46.34-2.14.68-.75.38-2.08,1.16-2,2.16,0,.11.19.11.18,0h0Z" class="cls-9"></path>
      <path d="M74.07,67.3c-.01-.83-.03-1.67.05-2.49s.32-1.58.34-2.38c.02-.91-.33-1.94-1.28-2.22-1.19-.34-2.58.65-3.58,1.14-1.46.72-2.91,1.26-4.44,1.78-1.08.37-2.17.85-2.89,1.77-.84,1.06-1.07,2.45-1.28,3.74-.12.72-.22,1.45-.45,2.14-.28.85-.75,1.57-1.15,2.36-.45.88-.77,1.93-.38,2.9.45,1.12,1.65,1.31,2.71,1.03.86-.22,1.65-.61,2.54-.74.99-.15,2-.09,3-.03.11,0,.11-.17,0-.18-1.16-.07-2.33-.14-3.48.11-1.24.26-2.78,1.32-4.01.51-1.3-.86-.68-2.68-.1-3.75.53-.99,1.02-1.89,1.26-3s.32-2.34.7-3.47c.47-1.41,1.4-2.34,2.75-2.91,1.03-.43,2.12-.68,3.15-1.1s2.07-.97,3.09-1.47c.85-.42,1.88-1.02,2.8-.49s.92,1.55.8,2.45c-.2,1.46-.36,2.82-.33,4.3,0,.11.18.11.18,0h0Z" class="cls-9"></path>
      <path d="M77.35,63.7c.54-3.42,2.14-6.49,4.16-9.26,1.71-2.34,4.08-4.44,5.19-7.17.2-.5.83-1.89.41-2.4-.46-.56-1.33.28-1.68.56-2.44,1.95-4.35,4.56-7.21,5.97-1.34.66-2.8,1.05-4.14,1.71s-2.4,1.61-3.39,2.71-1.83,2.25-2.92,3.22c-1.37,1.22-3.08,1.9-4.52,3.01-4.67,3.57-5.85,10.21-7.37,15.52-.19.66-2.55,6.52-.27,5.94.42-.11.87-.59,1.17-.88.74-.7,1.37-1.38,2.34-1.78.73-.3,1.52-.45,2.22-.83,1.12-.61,2.21-2.04,3.64-1.18.1.06.19-.09.09-.15-.68-.41-1.37-.34-2.07,0-.63.31-1.13.84-1.74,1.17-.7.38-1.49.51-2.22.81-1,.41-1.61,1.1-2.38,1.82-.37.34-1.53,1.6-1.91.09-.06-.22.05-.57.09-.78.21-.94.54-1.87.8-2.8,1.51-5.29,2.56-11.79,6.6-15.85,1.93-1.94,4.6-2.82,6.49-4.83.9-.96,1.7-2.02,2.61-2.97,1.14-1.18,2.4-1.98,3.92-2.58,2.46-.99,4.56-1.93,6.54-3.75.87-.8,1.69-1.65,2.56-2.45.36-.33,1.3-1.45,1.79-1.49,1.58-.14.26,2.39.05,2.81-1.42,2.75-3.85,4.91-5.57,7.47s-2.99,5.27-3.46,8.29c-.02.11.15.16.17.05h0Z" class="cls-9"></path>
      <path d="M58.66,86.38c-.63,1.1-1.82,1.3-2.94,1.63-.85.25-1.61.58-2.35,1.07-.86.57-1.63,1.25-2.46,1.87-.27.2-.63.57-.95.66-2.18.58-1.55-1.81-1.3-2.6.69-2.2,1.73-4.24,2.32-6.49.56-2.12,1.01-4.27,1.72-6.35.77-2.25,2.07-4.2,3.02-6.36s1.29-4.59,2.82-6.43c1.36-1.63,3.22-2.9,4.75-4.36,1.73-1.65,3.36-3.41,4.91-5.24.07-.09-.05-.21-.13-.13-1.4,1.66-2.87,3.25-4.42,4.77s-3.2,2.75-4.68,4.23c-1.27,1.27-1.91,2.84-2.47,4.51-.72,2.16-1.74,4.08-2.77,6.11-1.88,3.69-2.36,7.83-3.67,11.72-.59,1.76-1.76,3.51-1.86,5.4-.05,1.03.32,2.05,1.52,1.55,1.75-.73,3-2.44,4.72-3.28,1.46-.71,3.48-.63,4.37-2.19.06-.1-.1-.19-.15-.09h0Z" class="cls-9"></path>
      <path d="M96.99,39.75c-1.34-2.56,1.76-5.14,3.15-7.04,1.22-1.67,2.78-3.59,3.5-5.55.36-.98-.18-1.68-1.19-1.36-1.46.47-2.63,1.85-3.53,3.01-1.12,1.45-2.09,3.04-3.45,4.28-1.66,1.52-3.84,2.32-5.65,3.63-3.64,2.63-6.51,6.11-10.46,8.33-2.26,1.27-4.61,2.34-6.68,3.91-1.77,1.33-3.31,2.91-4.61,4.69-.07.09.09.18.15.09,2.65-3.63,6.19-5.83,10.08-7.91,3.56-1.9,6.31-4.48,9.33-7.11,1.65-1.44,3.4-2.61,5.3-3.69,1.53-.86,2.83-1.82,3.95-3.19,1.05-1.29,1.92-2.72,3.04-3.94.52-.57,1.26-1.42,2.02-1.65.57-.17,0-.35.95.27.79.51.71.37.36,1.06-.28.54-.62,1.07-.94,1.59-1.35,2.2-2.91,4.22-4.49,6.25-1.01,1.3-1.8,2.83-.97,4.42.05.1.21.01.15-.09h0Z" class="cls-9"></path>
      <path d="M105.24,29.58c.96-1.03,1.16-2.39,1.21-3.75.06-1.81.21-3.38,1.09-5,1.33-2.44,3.43-4.45,4.16-7.21.03-.11-.14-.16-.17-.05-.72,2.74-2.82,4.73-4.14,7.16-.59,1.09-.97,2.23-1.06,3.47-.14,1.81.13,3.8-1.21,5.24-.08.08.05.21.13.13h0Z" class="cls-9"></path>
      <path d="M110.73,12.52c-1.42,3.75-5.18,5.46-8.09,7.87-1.55,1.29-2.88,2.84-4.51,4.03-1.51,1.09-3.22,1.84-4.82,2.78-3.09,1.81-5.1,4.78-7.73,7.14s-5.63,4.43-8.54,6.52c-3.13,2.26-6.2,4.61-8.8,7.48-.08.08.05.21.13.13,4.84-5.36,11.29-8.79,16.72-13.47,2.98-2.57,5.21-5.9,8.68-7.86,1.62-.91,3.32-1.69,4.8-2.83s2.64-2.48,4.03-3.65c2.97-2.51,6.85-4.23,8.31-8.09.04-.11-.13-.15-.17-.05h0Z" class="cls-9"></path>
      <path d="M48.48,93.92c-1.6.38-1.57-5.45-1.52-6.32.09-1.52.61-2.98,1-4.45.51-1.9.99-3.8,1.54-5.69,1.1-3.77,2.72-7.36,4.21-10.99.74-1.82,1.4-3.73,2.44-5.41s2.48-2.66,3.97-3.83c3.18-2.48,5.35-5.98,8.23-8.77.08-.08-.04-.21-.13-.13-3.03,2.94-5.31,6.57-8.71,9.13-1.41,1.07-2.72,2.14-3.63,3.68-1.02,1.71-1.69,3.65-2.44,5.48-1.7,4.15-3.45,8.24-4.62,12.58-.88,3.26-2.18,6.58-2.05,10,.03.85.12,5.25,1.75,4.86.11-.03.06-.2-.05-.17h0Z" class="cls-9"></path>
      <path d="M53.43,92.49c-1.55.77-3.27,1.08-4.95,1.43-.11.02-.06.19.05.17,1.7-.35,3.43-.66,4.99-1.44.1-.05.01-.2-.09-.15h0Z" class="cls-9"></path>
      <path d="M105.83,8.18c-.34,5.75-4.77,9.92-9.17,13.07-2.08,1.49-4.24,2.87-6.25,4.45-2.19,1.73-4.06,3.8-6.16,5.63-2.25,1.96-4.8,3.53-7.2,5.28-1.97,1.44-3.81,3.05-5.54,4.77-3.67,3.63-6.94,7.64-10.73,11.14-2.15,1.98-4.7,3.54-6.74,5.62-1.68,1.72-2.34,3.94-2.32,6.31,0,.11.18.11.18,0-.03-2.99,1.12-5.29,3.37-7.21,2.01-1.71,4.16-3.21,6.09-5.03,3.75-3.54,7.02-7.56,10.72-11.15,2.04-1.98,4.23-3.74,6.55-5.36,2.14-1.49,4.31-2.94,6.24-4.7,2.12-1.92,4.06-3.99,6.35-5.71s4.57-3.15,6.78-4.83c3.98-3.02,7.68-7.06,7.99-12.29,0-.11-.17-.11-.18,0h0Z" class="cls-9"></path>
      <path d="M51.73,64.46c-.14,2.86-1.7,5.44-2.73,8.06s-1.88,5.2-2.6,7.88-1.26,5.23-1.67,7.89c-.39,2.48-.8,5.04-.45,7.54.02.11.19.06.17-.05-.41-2.9.17-5.95.67-8.81.46-2.65,1.07-5.27,1.82-7.86s1.58-4.98,2.57-7.4,2.27-4.66,2.39-7.25c0-.11-.17-.11-.18,0h0Z" class="cls-9"></path>
      <path d="M40.96,95.62c2.16-3.5,2.53-7.17,2.62-11.2.05-2.16.07-4.34.47-6.47s1.3-4.23,2.02-6.32,1.1-4.24,1.82-6.3c.76-2.2,1.98-4.16,3.43-5.97,2.66-3.34,5.92-6.23,8.95-9.23,1.87-1.85,3.69-3.76,5.63-5.53,1.52-1.39,3.12-2.68,4.06-4.57.05-.1-.1-.19-.15-.09-.93,1.87-2.52,3.15-4.03,4.53-1.7,1.55-3.3,3.22-4.94,4.84-3.07,3.03-6.33,5.97-9.12,9.27-1.22,1.44-2.33,2.99-3.17,4.69-.89,1.81-1.38,3.76-1.89,5.7-1.07,4.05-2.87,7.73-3.14,11.97-.15,2.39-.07,4.78-.29,7.16-.24,2.72-1,5.11-2.43,7.43-.06.1.09.19.15.09h0Z" class="cls-9"></path>
      <path d="M103.91,6.26c-1.35,4.12-3.69,7.87-6.89,10.81s-7.03,4.96-10.43,7.6-5.69,5.89-8.81,8.58c-2.58,2.23-6.43,3.45-7.97,6.69-.05.1.1.19.15.09.88-1.83,2.49-2.95,4.17-4,1.56-.98,3.05-1.96,4.41-3.21,3.31-3.05,6.01-6.52,9.71-9.15,3.37-2.4,7.02-4.46,9.92-7.46,2.71-2.8,4.71-6.19,5.92-9.89.04-.11-.14-.16-.17-.05h0Z" class="cls-9"></path>
      <path d="M30.69,88.64c2.9.1,6.06-.33,7.91-2.83.88-1.19,1.39-2.62,1.92-4,.72-1.88,1.43-3.77,1.98-5.72,1.05-3.75,1.15-7.7,2.64-11.33s3.98-6.98,6.67-9.93c3.05-3.36,6.44-6.41,9.5-9.76.08-.08-.05-.21-.13-.13-6.05,6.64-13.9,12.48-16.79,21.35-.75,2.3-.99,4.7-1.43,7.06s-1.24,4.79-2.11,7.11c-.82,2.19-1.54,4.8-3.42,6.35s-4.42,1.73-6.73,1.65c-.11,0-.11.17,0,.18h0Z" class="cls-9"></path>
      <path d="M102.38,9.83c-4.73,4.59-9.61,9.02-14.24,13.71-.08.08.05.21.13.13,4.64-4.68,9.51-9.12,14.24-13.71.08-.08-.04-.21-.13-.13h0Z" class="cls-9"></path>
      <path d="M101.73,4.23c-.1,1.93-1.62,3.85-2.7,5.39s-2.27,2.97-3.57,4.31c-2.54,2.62-5.45,4.77-8.62,6.54-1.42.8-2.83,1.6-3.9,2.86-1.26,1.48-2.37,3.03-3.76,4.4-2.9,2.86-5.73,5.78-9.11,8.06s-6.14,6-8.89,9.14c-.08.09.05.21.13.13,1.32-1.51,2.66-2.99,3.99-4.49,1.46-1.65,2.85-3.25,4.68-4.5,3.27-2.24,5.99-4.96,8.83-7.72,1.42-1.39,2.65-2.85,3.87-4.41,1.34-1.71,3.13-2.66,4.99-3.73,3.03-1.74,5.8-3.91,8.2-6.45,1.34-1.41,2.57-2.94,3.66-4.55.99-1.46,2.29-3.16,2.38-4.99,0-.11-.17-.11-.18,0h0Z" class="cls-9"></path>
      <path d="M30.82,86.28c7.24-4.06,9.41-12.62,11.73-19.96,1.38-4.38,3.04-9.51,6.61-12.62,1.73-1.5,3.67-2.57,5.22-4.29,1.44-1.6,2.64-3.39,3.99-5.07,3.38-4.22,7.66-7.57,11.98-10.76.09-.07,0-.22-.09-.15-3.63,2.68-7.22,5.46-10.29,8.79s-5.34,7.37-9.19,10.05c-7.32,5.1-8.15,14.96-11.26,22.64-1.81,4.49-4.46,8.79-8.79,11.22-.1.06-.01.21.09.15h0Z" class="cls-9"></path>
      <path d="M70.07,33.79c2.85-2.18,4.53-5.41,7.19-7.81,2.89-2.6,6.08-4.86,9.03-7.39,5.06-4.33,11.15-9.97,11.77-17.03.01-.11-.17-.11-.18,0-.65,7.29-7.15,13.06-12.4,17.48-2.69,2.27-5.56,4.34-8.19,6.67s-4.43,5.71-7.32,7.92c-.09.07,0,.22.09.15h0Z" class="cls-9"></path>
      <path d="M29.32,83.29c2.55-2.35,4.78-4.71,6.01-8.01s1.73-7.02,3.4-10.25c.05-.1-.1-.19-.15-.09-1.54,2.98-2.07,6.3-3.12,9.45-.57,1.71-1.32,3.34-2.41,4.78s-2.49,2.74-3.85,3.99c-.08.08.04.2.13.13h0Z" class="cls-9"></path>
      <path d="M95.15.78c.11,8.45-7.56,13.48-13.61,17.92-3.07,2.25-5.68,4.74-8.19,7.6-1.32,1.5-2.74,2.9-4.22,4.24-1.56,1.42-3.08,3.01-5.11,3.72-.11.04-.06.21.05.17,1.66-.58,2.87-1.69,4.16-2.84,1.6-1.42,3.17-2.88,4.61-4.46s2.82-3.31,4.43-4.78c1.71-1.56,3.58-2.93,5.45-4.29,5.82-4.21,12.7-9.3,12.61-17.28,0-.11-.18-.11-.18,0h0Z" class="cls-9"></path>
      <path d="M91.99,1.42c1.64,3.19-1.63,6.52-3.66,8.62-1.21,1.25-2.43,2.49-3.64,3.73-1.08,1.1-2.89,2.96-4.48,1.55-.09-.08-.21.05-.13.13,1.08.96,2.53.45,3.52-.37,1.68-1.41,3.15-3.16,4.68-4.73,2.14-2.19,5.58-5.64,3.86-9.01-.05-.1-.21-.01-.15.09h0Z" class="cls-9"></path>
      <path d="M107.44,9.19c-.59,2.59-1.63,5.07-3.07,7.31-.12.19-.41.65,0,.73.39.07.77-.48.98-.72.79-.92,1.9-1.45,2.64-2.41.79-1.02,1.22-2.26,1.59-3.48.03-.11-.14-.16-.17-.05-.39,1.27-.84,2.58-1.71,3.61-.46.54-1.03.91-1.59,1.33-.52.4-.87.96-1.37,1.38-.15.19-.26.14-.33-.13.05-.08.1-.15.15-.23.1-.16.2-.31.29-.47.17-.28.33-.56.49-.84.36-.65.68-1.32.97-2,.55-1.28.98-2.62,1.29-3.98.03-.11-.15-.16-.17-.05h0Z" class="cls-9"></path>
      <path d="M29.32,90.82c3.58-.3,7.6-.7,10.17-3.52.54-.59.91-1.24,1.26-1.95.13-.25.26-.48.48-.66.23-.19.32-.28.57-.04.27.26.18.55.15.9-.17,2.09-.74,4.11-1.61,6.01s-2.13,3.54-2.27,5.61c0,.11.17.11.18,0,.15-2.2,1.63-4.06,2.47-6.03.78-1.81,1.27-3.73,1.42-5.7.03-.44.16-.99-.37-1.13-.43-.11-.76.3-.98.62s-.34.68-.52,1.01c-.26.47-.59.91-.96,1.3-.67.71-1.47,1.28-2.33,1.73-2.35,1.23-5.05,1.45-7.65,1.66-.11,0-.11.19,0,.18h0Z" class="cls-9"></path>
      <path d="M26.08,94.75c1.26-1.42,3.37-1.71,5.12-2.17,1.03-.27,2.05-.53,3.08-.8.51-.13,1.03-.27,1.54-.4.42-.11.98-.23,1.21.35.1.25.06.63,0,.89-.17.89-.74,1.65-1.11,2.46s-.44,1.65-.58,2.52c-.3,1.91-1.08,3.69-2.25,5.22-.07.09.08.18.15.09,1.01-1.33,1.74-2.85,2.12-4.48.19-.85.21-1.74.45-2.58s.74-1.54,1.09-2.32c.31-.7.74-2.55-.58-2.44-.45.04-.91.21-1.34.33-.51.13-1.03.27-1.54.4-.95.25-1.91.5-2.86.74-1.63.42-3.47.75-4.64,2.07-.08.09.05.21.13.13h0Z" class="cls-9"></path>
      <path d="M24.73,96.35c1.76-.96,3.64-1.47,5.6-1.83.42-.08.85-.15,1.27-.22.34-.07.68-.12,1.03-.12.63-.11.94.19.95.92.42,1.01.31,1.3-.17,2.26-.17.34-.37.67-.58.99-1.11,1.62-2.73,2.63-4.06,4.03-1.03,1.09-1.64,2.43-2.22,3.8-1.52,3.59-3.6,6.71-6.17,9.64-1.21,1.38-2.49,2.7-3.77,4.01-1.02,1.04-2.1,2.01-2.53,3.45-.03.11.14.16.17.05.62-2.09,2.79-3.67,4.25-5.2,1.36-1.44,2.69-2.91,3.91-4.48,1.29-1.66,2.45-3.42,3.37-5.3,1.01-2.05,1.61-4.34,3.27-6,1.37-1.37,2.96-2.42,4.03-4.07.55-.84,1.68-2.76.95-3.76s-2.6-.37-3.53-.21c-2.04.37-4.02.88-5.85,1.89-.1.06-.01.21.09.15h0Z" class="cls-9"></path>
      <path d="M28.1,109.26c.38-.72.64-1.49.77-2.3.07-.43.11-.86.23-1.28.13-.47.39-.88.69-1.26.53-.67,1.16-1.3,1.76-1.91.71-.73,1.56-1.16,2.6-.98.11.02.16-.15.05-.17-.8-.14-1.6.04-2.24.54-.36.28-.65.62-.96.94-.36.38-.73.76-1.07,1.16-.58.66-.97,1.36-1.11,2.24-.17,1.04-.36,1.99-.85,2.93-.05.1.1.19.15.09h0Z" class="cls-9"></path>
      <path d="M22.37,99.37c1.71-.62,3.42-1.23,5.13-1.84.48-.17,2.6-1.27,2.96-.47.18.41-.44,1.59-.59,1.9-.73,1.49-1.94,2.33-3.25,3.3-1.13.84-2.06,1.79-2.78,3-1.74,2.88-2.48,6.11-4.78,8.67-2.15,2.4-5.38,4.17-6.72,7.19-.05.1.11.19.15.09.9-2.03,2.68-3.36,4.29-4.81,1.36-1.22,2.69-2.49,3.71-4.01,2.27-3.36,2.81-7.42,6.22-9.99,1.13-.85,2.31-1.6,3.04-2.85.34-.59,1.23-2.11.85-2.85s-1.61.1-2.11.28c-2.05.74-4.11,1.46-6.16,2.21-.11.04-.06.21.05.17h0Z" class="cls-9"></path>
      <path d="M13.29,110.17c-.07.35-.17,1,.2,1.23.31.19.84-.04,1.13-.16,1.34-.54,2.45-1.69,3.46-2.69.55-.54,1.12-1.09,1.54-1.74s.53-1.43.71-2.19c.1-.41.22-.81.45-1.17.21-.33.49-.62.65-.97.21-.45.22-.97-.13-1.35-.08-.08-.2.04-.13.13.58.61-.03,1.37-.4,1.9-.31.44-.49.9-.62,1.42-.13.58-.2,1.17-.45,1.71-.28.62-.77,1.13-1.24,1.62-.87.91-1.81,1.78-2.81,2.55-.39.3-.84.55-1.31.7-.16.06-.42.16-.59.12-.44-.1-.36-.73-.29-1.06.02-.11-.15-.16-.17-.05h0Z" class="cls-9"></path>
      <path d="M11.15,112.67c.23.38-.06.87.08,1.26.09.26.32.45.56.55.58.24,1.17-.04,1.64-.39.9-.66,1.74-1.42,2.6-2.13.91-.75,1.84-1.48,2.72-2.27.71-.64,1.38-1.35,1.86-2.18.56-.98.81-2.1,1.4-3.07s1.37-1.73,2.14-2.52c.39-.4,1.23-1.03,1.11-1.7-.26-1.53-2.8-.05-3.57-.09-.11,0-.11.17,0,.18.6.04,1.22-.27,1.78-.44.16-.05.32-.11.48-.13.5-.07,1.4.05.99,1.04-.18.43-.77.87-1.1,1.21-.63.65-1.28,1.31-1.79,2.07-.62.91-.9,1.94-1.36,2.92-.95,2-2.9,3.32-4.56,4.69-.88.72-1.74,1.47-2.64,2.17-.79.61-1.99.94-2.08-.5-.02-.34.1-.42-.1-.75-.06-.1-.21,0-.15.09h0Z" class="cls-9"></path>
      <path d="M7.37,118.31c-1.01-.28-2.13-.57-3.12-.07s-1.1,1.41-1.13,2.37c-.02.65-.11,1.18-.41,1.77-.19.39-.34.79-.21,1.22.32,1.07,1.63,1.39,2.02,2.42.04.11.21.06.17-.05-.31-.81-1.1-1.17-1.64-1.8-.45-.52-.5-1.04-.21-1.66.19-.4.36-.76.41-1.2.12-.98-.11-2.14.84-2.79s2.19-.34,3.23-.05c.11.03.16-.14.05-.17h0Z" class="cls-9"></path>
      <path d="M7.07,118.31c.57.51,1.23.87,1.9,1.22.8.42,1.51.89,2.17,1.52.54.52,1.11.93,1.75,1.32.69.42,1.45.84,1.88,1.56.5.83.52,2.03.34,2.97-.19,1.04-.96,1.67-2.01,1.65-1.78-.03-2.91-1.54-4.33-2.37-1.7-1-3.77-.34-5.47-1.26-.1-.05-.19.1-.09.15,1.74.94,3.83.26,5.55,1.31,1.45.88,2.64,2.41,4.49,2.34,1.75-.06,2.16-1.69,2.09-3.16-.04-.82-.23-1.59-.8-2.2s-1.33-.98-2.02-1.42c-.89-.56-1.54-1.4-2.42-1.97-.97-.63-2.06-1.02-2.93-1.8-.09-.08-.21.05-.13.13h0Z" class="cls-9"></path>
      <path d="M8.34,119.21c-.93.74-2.34.08-3.23.94-.73.71-.09,1.67.66,2.03.63.3,1.34.39,1.93.77s1.15.86,1.75,1.25,1.21.74,1.84,1.05c.46.23,1.03.57,1.57.46,1.25-.27.96-2.26.62-3.08-.04-.1-.22-.06-.17.05.28.67.41,1.48.16,2.19-.38,1.09-1.43.57-2.16.2-.63-.32-1.25-.67-1.84-1.06s-1.1-.84-1.68-1.21c-.54-.35-1.15-.46-1.74-.69-.7-.28-1.58-1.16-.78-1.87.89-.78,2.26-.17,3.19-.9.09-.07-.04-.2-.13-.13h0Z" class="cls-9"></path>
      <path d="M10.37,120.43c-.75-.46-1.72.66-1.38,1.39.11.24.33.41.55.56.28.18.58.34.87.51.33.19.65.39.98.56.24.12.52.15.7-.1s.19-.62.12-.91c-.08-.37-.27-.71-.47-1.03-.06-.1-.21,0-.15.09.27.45.59.99.45,1.53-.03.11-.09.26-.2.31-.15.07-.32-.03-.45-.1-.25-.14-.5-.29-.76-.44s-.5-.29-.76-.44c-.2-.11-.4-.23-.56-.39-.29-.3-.25-.66-.04-.99s.62-.63,1.01-.4c.1.06.19-.09.09-.15h0Z" class="cls-9"></path>
    </g>
    <g class="cls-7">
      <path d="M28.14,6.68c-1.55,1.28-5.94,4.88-8.18,8.08-2.24,3.21.43,6.54.43,6.54l15.1,18.21,26.17,31.51,14.56,17.44s5.2,6.12,6.69,7c1.5.88,3.39,1.34,6.86.33,3.46-1.02,6.2,1.8,6.2,1.8l8.6,10.23s9.87,11.77,13.12,15.64c.56.66,1.52.72,2.18.15l6.21-5.33c.66-.57.76-1.54.2-2.2-3.26-3.86-13.16-15.61-13.16-15.61l-8.6-10.23s-2.3-3.19-.75-6.48c1.55-3.29,1.41-5.25.79-6.89-.62-1.64-5.75-7.81-5.75-7.81l-14.68-17.33-26.55-31.19L42.23,2.56s-2.82-3.2-6.32-1.48c-3.49,1.71-7.71,5.51-9.22,6.85" class="cls-2"></path>
      <path d="M132.87,123.74l-8.53,7.32c-1.36,1.17-3.4,1-4.56-.37l-1.56-1.86c-1.02-1.22-.88-3.04.33-4.08l9.09-7.81c1.2-1.03,3.01-.89,4.04.33l1.56,1.86c1.16,1.38.99,3.44-.37,4.61Z" class="cls-1"></path>
      <path d="M30.01,23.64c-.11,1.24.47,2.49,1.47,3.23.12.09.26.17.39.25.11.06.21.12.32.03.24-.18.33-.53.28-.81-.07-.41-.26-.82-.39-1.22-.11-.32-.19-.67-.39-.95-.09-.13-.21-.23-.35-.3-.21-.09-.41-.13-.59-.27-.2-.15-.54-.3-.7,0-.05.1.1.19.15.09.14-.27.55.16.72.23.13.05.27.07.4.14s.22.18.29.31c.15.26.22.56.31.83.1.31.21.61.31.92.05.17.11.35.06.53-.02.07-.05.14-.09.2-.06.1-.1.16-.22.11-.23-.08-.46-.28-.64-.44-.37-.33-.67-.74-.88-1.2-.24-.53-.34-1.11-.29-1.69.01-.11-.17-.11-.18,0h0Z" class="cls-9"></path>
      <path d="M25.02,18.62c-.71.39-.13,1.4.17,1.89.81,1.36,1.85,2.65,2.41,4.14.47,1.23.76,2.41,1.62,3.44.81.97,1.87,1.7,2.94,2.35.55.33,1.1.64,1.66.95.38.21,1.02.74,1.5.55.88-.34.28-2.22.15-2.81-.49-2.2-1.09-5.18-3.04-6.59-.61-.44-1.33-.64-2.03-.91-.8-.31-1.56-.72-2.26-1.21s-1.2-1.08-1.85-1.56c-.41-.3-.8-.46-1.28-.24-.1.05-.01.2.09.15.76-.35,1.44.56,1.91.98.36.32.73.61,1.13.88.86.58,1.78,1.01,2.76,1.36,1.19.43,2.07,1.06,2.72,2.17.51.87.82,1.85,1.1,2.82.35,1.23.73,2.48.84,3.76.01.14.04.31,0,.45-.05.19-.4.56-.63.58s-.82-.42-1.02-.54c-.47-.26-.94-.52-1.4-.8-2.02-1.19-3.64-2.56-4.4-4.84-.38-1.16-.87-2.16-1.52-3.2-.3-.47-2.39-3.13-1.48-3.63.1-.06.01-.21-.09-.15h0Z" class="cls-9"></path>
      <path d="M20.06,14.37c-.15.68.26,1.41.56,1.99.44.86.89,1.71,1.32,2.57,1.02,2.05,2.05,4.23,2.2,6.55,0,.11.18.11.18,0-.13-2.04-.93-3.97-1.81-5.8-.44-.92-.91-1.83-1.39-2.74-.37-.71-1.08-1.69-.89-2.52.03-.11-.15-.16-.17-.05h0Z" class="cls-9"></path>
      <path d="M21.13,13.42c.58,2.52,3.83,3.62,5.85,4.65,1.56.8,3.13,1.59,4.69,2.39s3.08,1.62,3.87,3.22,1.11,3.44,1.59,5.12,1.01,3.52,1.52,5.28c.08.28.16.56.24.84l-.89.24c-.34-.01-.88-.42-1.19-.57-.62-.3-1.24-.59-1.88-.85-1.38-.56-2.77-.9-4.26-.8-.11,0-.11.18,0,.18,2-.13,3.76.55,5.54,1.39.43.2,2.31,1.53,2.82.92.21-.25-.03-.77-.09-.98-.27-.99-.57-1.97-.85-2.96-.57-1.97-1.12-3.94-1.7-5.91-.4-1.38-.86-2.66-1.97-3.63-1.2-1.05-2.76-1.7-4.16-2.42-1.75-.89-3.51-1.78-5.26-2.68-1.49-.76-3.29-1.73-3.7-3.49-.03-.11-.2-.06-.17.05h0Z" class="cls-9"></path>
      <path d="M21.96,12.85c2.03,2.54,5.63,2.94,8.36,4.42,3.16,1.7,5.85,4.22,7.88,7.18,2.16,3.16,3.07,6.7,4.45,10.21.64,1.63,1.53,3.13,2.36,4.67.45.82.87,1.66,1.19,2.54.16.43.3.88.39,1.33.05.24.14.54.12.78.17.4,0,.62-.5.65-.28.33-.52.37-.74.12-.53-.17-1.1-.82-1.55-1.16s-.91-.68-1.36-1.02c-.97-.73-1.94-1.45-2.92-2.18-.76-.57-1.51-1.26-2.37-1.67s-1.87-.54-2.81-.73c-.11-.02-.16.15-.05.17.83.17,1.69.29,2.48.59,1.19.46,2.23,1.47,3.25,2.23.91.68,1.81,1.35,2.72,2.03.52.39,1.04.77,1.55,1.16.44.33.95.89,1.47,1.07,1,.35,1.11-.47,1.02-1.3-.2-1.88-1.13-3.61-2.03-5.24-1.11-2.01-2.06-3.99-2.8-6.17-.62-1.84-1.22-3.68-2.1-5.42-1.59-3.12-3.85-5.91-6.62-8.06-1.57-1.22-3.31-2.22-5.16-2.95-2.19-.87-4.57-1.44-6.11-3.36-.07-.09-.2.04-.13.13h0Z" class="cls-9"></path>
      <path d="M23.43,11.35c.86,1.2,2.13,1.75,3.46,2.29,1.8.74,3.59,1.52,5.31,2.44,3.27,1.76,6.34,4.04,8.44,7.15s3.53,7.11,5.08,10.68c1.64,3.76,3.41,7.47,5.81,10.82.07.09.22,0,.15-.09-2.4-3.35-4.17-7.06-5.81-10.82-1.56-3.57-2.9-7.43-5.08-10.68-1.82-2.7-4.37-4.79-7.14-6.45-1.57-.94-3.22-1.74-4.89-2.47-1.8-.78-3.98-1.3-5.17-2.97-.07-.09-.22,0-.15.09h0Z" class="cls-9"></path>
      <path d="M51.56,44.77c.96,2.18,2.09,4.35,2.76,6.64.15.53.43,1.32.37,1.88-.13,1.27-1.55.93-2.24.52-.96-.57-1.6-1.64-2.34-2.45-1.49-1.63-3.19-3.05-4.92-4.42-.79-.62-1.57-1.35-2.5-1.75-.89-.37-1.86-.49-2.8-.63-.11-.02-.16.15-.05.17,1.24.18,2.53.34,3.59,1.06,1.15.78,2.22,1.72,3.29,2.61s2,1.74,2.91,2.7c.79.83,1.46,1.86,2.36,2.59.63.5,1.64.94,2.42.51s.41-1.54.25-2.2c-.59-2.54-1.9-4.95-2.94-7.32-.05-.1-.2-.01-.15.09h0Z" class="cls-9"></path>
      <path d="M26.06,9.17c2.82,2.71,5.9,5.35,9.28,7.33,1.78,1.04,3.72,1.71,5.26,3.14,1.36,1.27,2.38,2.86,3.25,4.5,1.87,3.51,3.42,7.22,5.08,10.83,1.83,3.96,3.86,7.89,5.17,12.06.03.11.21.06.17-.05-1.24-3.96-3.15-7.7-4.89-11.46s-3.4-7.75-5.38-11.47c-.79-1.48-1.7-2.92-2.88-4.13-1.25-1.29-2.73-2.05-4.33-2.84-3.95-1.95-7.45-5-10.61-8.04-.08-.08-.21.05-.13.13h0Z" class="cls-9"></path>
      <path d="M54.1,47.03c1.94,4.86,4.9,9.85,8.79,13.41,1.91,1.75,4.22,2.98,6.41,4.33,2.6,1.6,4.97,3.5,7.07,5.72.08.08.2-.04.13-.13-1.79-1.89-3.76-3.58-5.93-5.01-2.31-1.52-4.82-2.75-6.95-4.52s-3.79-4.01-5.31-6.26c-1.61-2.38-2.97-4.92-4.03-7.59-.04-.1-.21-.06-.17.05h0Z" class="cls-9"></path>
      <path d="M76.32,70.38c1.79,2.01,3.49,4.04,5.65,5.66,2.35,1.76,4.82,3.68,6.5,6.13.51.74.79,1.55.59,2.46-.13.61-.56,1.15-.81,1.71-.45,1.02-.42,2.07-.39,3.16.04,1.58-.05,3.68-1.89,4.2-.62.18-1.3.11-1.93.13-.86.04-1.66.13-2.53,0-.11-.02-.16.15-.05.17,1.29.21,2.92.17,4.21-.05.96-.16,1.65-.71,2.03-1.6.55-1.3.26-2.7.32-4.06.05-1.08.41-1.85.88-2.79.21-.43.41-.86.45-1.34.09-1.17-.75-2.17-1.45-3-1.09-1.29-2.3-2.49-3.61-3.57s-2.77-2-4.02-3.16c-1.38-1.27-2.57-2.76-3.81-4.16-.08-.09-.2.04-.13.13h0Z" class="cls-9"></path>
      <path d="M60.22,68.84c-.43-2.02-.94-4.04-1.65-5.98-.31-.84-.65-1.66-1.04-2.46-.19-.4-.41-.79-.62-1.18-.14-.24-.27-.49-.4-.74l.25-1.18c-.32.23,3.38,3.7,3.76,3.97,1.53,1.11,3.2,2.01,4.77,3.06,3.55,2.39,7,5.13,10.17,8.01,1.48,1.35,2.68,2.96,4.1,4.37s3,2.84,4.38,4.38c.08.09.2-.04.13-.13-1.58-1.76-3.36-3.31-5-5.01-1.55-1.6-2.9-3.29-4.62-4.73-3.56-2.99-7.16-5.93-11.13-8.37-1.81-1.12-3.68-2.22-5.05-3.88-.23-.28-1.47-2.64-2.17-1.96-.32.32.12,1.21.26,1.54.53,1.19,1.23,2.29,1.72,3.51.89,2.2,1.48,4.5,1.97,6.81.02.11.2.06.17-.05h0Z" class="cls-9"></path>
      <path d="M83.85,80.96c1.56,2.34,2.4,5.21,1.99,8.02-.11.73-.23,1.68-.92,2.08-.6.35-1.37.31-2.04.28-1.09-.04-2.25-.18-3.18.51-.09.07,0,.22.09.15,1.24-.92,2.85-.34,4.26-.5.5-.06,1.01-.21,1.35-.6.42-.49.52-1.25.61-1.87.43-2.86-.42-5.78-2-8.15-.06-.09-.22,0-.15.09h0Z" class="cls-9"></path>
      <path d="M66.59,76.16c.59-1.28.23-2.56-.2-3.84-.31-.93-.64-1.85-.95-2.78-.07-.22-.65-1.42-.54-1.59l.83-.14c.14.23.28.46.42.68.86,1.33,1.89,2.69,3.13,3.68.75.59,1.65.82,2.45,1.31s1.47,1.24,2.09,1.98c1.09,1.31,2.16,2.58,3.54,3.61.78.58,1.69,1.03,2.39,1.71.79.77,1.19,1.83,1.58,2.84s.69,1.95.74,2.99c.04.69,0,2.63-.72,3.04s-1.27-.07-1.93-.13c-.51-.05-.89.13-1.27.46-.09.07.04.2.13.13.72-.62,1.31-.27,2.03.03.1.04.19.16.31.17.34.02.44-.03.68-.28.85-.9,1.04-2.42.94-3.59-.12-1.44-.68-2.83-1.27-4.13s-1.52-2.01-2.71-2.81c-1.48-.99-2.71-2.2-3.83-3.58-.96-1.17-1.88-2.28-3.27-2.93-1.89-.89-3.18-2.21-4.39-3.91-.31-.43-.97-2.2-1.77-1.96-.88.26.14,2.06.29,2.48.65,1.89,2.08,4.5,1.17,6.48-.05.1.11.19.15.09h0Z" class="cls-9"></path>
      <path d="M73.37,84.59c-.56-1.67-.89-3.42-1.4-5.11-.14-.46-.31-.96-.31-1.45,0-.12,0-.43.09-.52.18-.19.49-.22.69-.09s.36.34.51.52c.54.68,1.15,1.27,1.83,1.82,1.32,1.05,2.79,1.91,4,3.09,1.09,1.05,2.69,3.14,1.71,4.73-.43.69-2.09-.11-2.73-.26-.73-.17-1.43-.19-2.09.21-.1.06,0,.21.09.15.98-.59,2.03-.17,3.04.11.38.11.76.2,1.15.23s.52-.06.73-.42c.83-1.46-.33-3.33-1.3-4.4-1.39-1.54-3.25-2.53-4.82-3.86-.36-.31-.71-.63-1.03-.98s-.56-.78-.95-1.06c-.47-.34-.99-.17-1.09.43-.09.52.1,1.11.25,1.6.18.63.39,1.25.55,1.89.29,1.14.53,2.29.9,3.41.04.11.21.06.17-.05h0Z" class="cls-9"></path>
      <path d="M74.86,81.45c-.27,0-.54.1-.61.38s.04.62.15.89c.12.29.26.59.41.87.28.52.77.95,1.16,1.38.37.41.7.89,1.26,1.01.39.09.92.19,1.21-.17.24-.3.21-.76.09-1.1-.17-.47-.48-.88-.82-1.23-.43-.44-.92-.8-1.4-1.18-.42-.33-.87-.75-1.42-.85-.11-.02-.16.15-.05.17.43.08.77.36,1.1.62.36.29.73.56,1.09.86.6.51,1.38,1.23,1.4,2.08,0,.19-.03.4-.16.54-.18.2-.47.17-.71.13s-.48-.07-.68-.2-.37-.34-.53-.52c-.35-.38-.7-.76-1.04-1.15-.24-.28-.41-.58-.57-.91-.2-.41-.71-1.43.11-1.44.11,0,.11-.18,0-.18h0Z" class="cls-9"></path>
      <path d="M56.08,18.89c-.89,1.04-.34,2.24.18,3.34.88,1.85,1.89,3.63,3.01,5.34,2.3,3.5,5.1,6.49,8.08,9.41,3.2,3.14,6.23,6.45,9,9.97,2.38,3.02,4.48,6.26,7.05,9.13,1.27,1.42,2.67,2.74,4.26,3.81,1.42.95,3.23,2.03,4.99,2,.11,0,.11-.18,0-.18-1.71.03-3.51-1.04-4.9-1.97s-2.68-2.1-3.83-3.35c-2.33-2.51-4.23-5.36-6.29-8.08-2.29-3.01-4.75-5.9-7.36-8.64s-5.55-5.33-8-8.32c-1.39-1.69-2.65-3.49-3.78-5.36-.53-.88-1.03-1.78-1.5-2.69-.61-1.19-1.87-3.03-.79-4.29.07-.09-.05-.21-.13-.13h0Z" class="cls-9"></path>
      <path d="M54.12,16.99c-.67,1.48-.91,2.89-.29,4.45.83,2.1,2.4,4.02,3.65,5.88s2.53,3.81,3.96,5.58,3.24,3.39,5,4.96c3.54,3.19,6.4,6.77,8.72,10.93,1.96,3.52,3.78,7.28,6.87,9.98,1.84,1.61,4.06,2.77,6.22,3.89s4.37,2.05,6.8,2.3c.11.01.11-.17,0-.18-2.4-.24-4.59-1.17-6.71-2.27s-4.12-2.14-5.89-3.61c-2.99-2.48-4.82-5.98-6.66-9.33s-4.03-6.71-6.83-9.56c-1.5-1.53-3.14-2.89-4.7-4.36s-2.98-3.17-4.25-4.96c-1.53-2.15-2.98-4.35-4.43-6.56-.67-1.03-1.47-2.11-1.78-3.32-.35-1.37-.1-2.48.47-3.74.05-.1-.11-.19-.15-.09h0Z" class="cls-9"></path>
      <path d="M51.99,14.48c-2.36,4.31.42,8.92,2.56,12.69,2.56,4.51,5.27,9.02,9.04,12.63,1.92,1.83,4.04,3.46,5.71,5.53s2.84,4.28,4.08,6.52c2.22,4.05,4.63,7.83,8.62,10.33,4.41,2.77,9.65,3.64,14.69,4.49.11.02.16-.15.05-.17-4.43-.74-8.97-1.49-13.01-3.55-4.28-2.17-7.12-5.69-9.43-9.8s-4.23-7.69-7.6-10.77c-1.86-1.7-3.75-3.33-5.38-5.26s-3.15-4.19-4.51-6.43-2.82-4.68-4.03-7.1c-1.4-2.8-2.22-6.13-.64-9.02.05-.1-.1-.19-.15-.09h0Z" class="cls-9"></path>
      <path d="M40.85,1.41c-1.25,1.23.47,2.99,1.4,3.81.83.74,1.58,1.46,2.15,2.43.53.9.92,1.87,1.3,2.84.59,1.47,1.27,3.43,3.08,3.7,1.2.18,2.56-1.02,1.78-2.23-.06-.1-.22,0-.15.09.54.84-.17,1.83-1.06,1.96-.98.15-1.87-.5-2.4-1.27-.79-1.15-1.16-2.57-1.72-3.83s-1.24-2.35-2.23-3.27c-.91-.84-3.41-2.77-2.03-4.12.08-.08-.04-.21-.13-.13h0Z" class="cls-9"></path>
      <path d="M38.82.43c-1.8,1.07-.55,3.54.34,4.81,2,2.85,4.03,5.65,5.87,8.61,3.79,6.09,7.06,12.49,9.76,19.14,2.43,5.98,3.78,12.91,8.26,17.79,2.27,2.48,4.98,4.6,7.56,6.75s5.29,4.3,8.15,6.15c6.73,4.36,14.26,6.25,22.01,7.91.11.02.16-.15.05-.17-6.66-1.42-13.34-2.93-19.33-6.29s-10.75-7.57-15.63-11.89c-2.49-2.2-4.59-4.6-6.04-7.6s-2.39-6.26-3.56-9.39c-2.23-5.97-4.92-11.77-8.03-17.33-1.73-3.1-3.59-6.12-5.58-9.06-.99-1.47-2.02-2.91-3.07-4.34-.89-1.21-2.54-3.81-.67-4.92.1-.06,0-.21-.09-.15h0Z" class="cls-9"></path>
      <path d="M60.09,42.32c-.22-.66,0-2.21,1.13-1.52.49.3.88.9,1.2,1.34.55.76,1.07,1.58,1.82,2.16.87.68,1.91,1.05,2.73,1.82s1.38,1.62,1.88,2.55.95,1.96,1.35,2.96c.26.66.43,1.62-.45,1.87-.62.18-1.24-.13-1.66-.57-.72-.75-1.08-1.75-1.83-2.5-.67-.67-1.45-1.2-2.2-1.78-2.05-1.56-3.39-3.83-3.98-6.34-.03-.11-.2-.06-.17.05.59,2.51,1.93,4.81,3.98,6.39,1.15.89,2.35,1.69,3.14,2.94.53.84,1.04,1.88,2.14,2.02.9.11,1.56-.51,1.41-1.42-.09-.54-.36-1.06-.57-1.55-.26-.61-.53-1.22-.83-1.81-.56-1.1-1.25-2.16-2.16-3-1.03-.94-2.42-1.36-3.36-2.42-.52-.59-.92-1.26-1.4-1.87-.33-.42-.77-1.01-1.29-1.21-1.05-.39-1.28,1.28-1.06,1.94.04.11.21.06.17-.05h0Z" class="cls-9"></path>
      <path d="M29.64,6.13c2.47,5.54,8.36,8.08,12.65,11.94,5.46,4.91,7.69,12.12,10.43,18.7,1.44,3.45,3.01,6.84,4.72,10.17s3.3,6.59,5.66,9.35,5.47,4.17,8.66,5.65c3.48,1.61,6.7,3.64,9.9,5.73,6.45,4.2,13.8,9.26,21.89,7.92.11-.02.06-.19-.05-.17-7.66,1.27-14.66-3.29-20.8-7.28-3.16-2.05-6.3-4.16-9.7-5.81-3.17-1.54-6.54-2.8-9.06-5.37-2.66-2.73-4.4-6.35-6.14-9.69s-3.43-6.96-4.92-10.54c-2.46-5.92-4.47-12.33-8.86-17.17s-11.45-7.26-14.23-13.51c-.05-.1-.2-.01-.15.09h0Z" class="cls-9"></path>
      <path d="M32.3,3.58c1.56,3.47,3.55,7.11,6.97,9.06.4.23,1.16.63,1.43.01.25-.58-.17-1.58-.4-2.12-.6-1.42-1.61-2.61-2.56-3.8-1.17-1.49-2.37-3.11-2.37-5.09,0-.11-.18-.11-.18,0,0,2.89,2.37,4.95,3.9,7.14.43.62.83,1.28,1.11,1.99.12.32.22.65.29.99s.12.5-.13.8c-.21.26-.18.28-.46.2-.19-.06-.38-.17-.55-.27-1.58-.89-2.88-2.2-3.94-3.65-1.21-1.65-2.13-3.48-2.97-5.34-.05-.1-.2-.01-.15.09h0Z" class="cls-9"></path>
      <path d="M104.49,77.28c-1.91.45-3.84.89-5.81.58s-3.57-1.34-5.31-2.14c-1.59-.74-3.22-1.38-4.89-1.93-.96-.32-2.16-.73-3.16-.28-.63.29-.93.95-.68,1.6.38,1.02,1.72,1.4,2.55,1.91,2.73,1.65,4.41,4.98,4.12,8.16-.18,1.92-1.04,3.7-1.27,5.62-.2,1.66-.45,5.2-2.65,5.54-.11.02-.06.19.05.17,2.61-.41,2.57-4.65,2.89-6.53.27-1.57.97-3.04,1.14-4.63.14-1.33-.06-2.69-.52-3.94-.41-1.11-1.03-2.14-1.83-3.01-.94-1.03-2.05-1.55-3.22-2.27-.37-.23-1.11-.7-1.14-1.18s.4-1.19.84-1.35c.18-.06.42-.08.61-.09.84-.04,1.64.26,2.42.52,1.85.62,3.65,1.35,5.4,2.2,1.58.76,3.06,1.61,4.83,1.84,1.92.25,3.81-.19,5.67-.62.11-.03.06-.2-.05-.17h0Z" class="cls-9"></path>
      <path d="M91.79,95.33c.23-2.59.46-5.18.69-7.77l.36-4.04c.09-1.06.06-2.32.64-3.26.87-1.42,2.28-.5,3.35.08.73.39,1.46.57,2.29.5,1.9-.16,3.9-1.47,5.76-.47.1.05.19-.1.09-.15-1.88-1.01-3.83.23-5.74.43-1.45.15-2.32-.64-3.57-1.15-.67-.28-1.4-.3-1.97.21s-.78,1.41-.87,2.16c-.19,1.42-.26,2.86-.39,4.29-.27,3.05-.54,6.11-.81,9.16-.01.11.17.11.18,0h0Z" class="cls-9"></path>
      <path d="M93.51,96.05c-.05-.89-.1-1.78-.16-2.67s-.22-2.14.83-2.51c1.84-.64,3.04,1.92,3.83,3.12,1.02,1.56,2.05,3.11,3.07,4.67.47.71,1.25,1.57,1.31,2.46s-.84,1.93-1.79,1.71c-.11-.03-.16.15-.05.17,1.01.24,2.05-.8,2.03-1.79-.02-.77-.57-1.43-.97-2.04-.55-.84-1.11-1.68-1.66-2.53-1.04-1.58-2-3.26-3.16-4.76-.68-.88-2.01-1.78-3.08-.94-.56.44-.6,1.18-.57,1.83.04,1.1.13,2.19.19,3.29,0,.11.18.11.18,0h0Z" class="cls-9"></path>
      <path d="M104.76,81.82c-.29-.75-1.12-1.12-1.91-.98-.61.1-1.09.53-1.57.88-.99.72-1.98,1.1-3.2,1.21-.85.07-1.71-.07-2.56.01-.28.03-.54.02-.75.24-.77.78,0,2.92.31,3.7,1.37,3.46,4.58,5.76,6.84,8.59,1.26,1.57,2.39,3.26,3.32,5.04.63,1.2,1.17,2.51.53,3.84-.34.71-1.35,2.27-2.35,1.81-.1-.05-.19.11-.09.15,1.53.71,2.92-2.06,2.92-3.24,0-1.49-.98-2.94-1.71-4.16-.9-1.49-1.92-2.91-3.04-4.24-2.46-2.91-6.05-5.48-6.71-9.47-.15-.9-.12-1.7.88-2.1.33-.13,1.04.03,1.41.03.73,0,1.48-.04,2.2-.22.65-.16,1.23-.43,1.79-.81.92-.63,2.81-2.13,3.54-.24.04.11.21.06.17-.05h0Z" class="cls-9"></path>
      <path d="M103.42,84.31c-1.7-.16-4.11-.02-5.39,1.29-1.44,1.47-.28,3.48.75,4.8,1.31,1.68,2.7,3.23,4.51,4.37.97.61,2,1.18,2.83,1.98s1.3,1.82,2.12,2.58c.6.56,1.48,1.04,2.21.38.64-.58.37-1.79.23-2.53-.02-.11-.19-.06-.17.05.13.69.31,1.52-.09,2.15-.64,1-1.73.19-2.31-.43-.68-.73-1.14-1.62-1.86-2.32-1.5-1.45-3.52-2.21-5.02-3.69-.78-.76-1.47-1.61-2.15-2.46-.77-.96-1.66-2.15-1.52-3.46.26-2.49,3.99-2.72,5.87-2.55.11.01.11-.17,0-.18h0Z" class="cls-9"></path>
      <path d="M103.1,86.9c-.15.13-.22.15-.37.02-.09-.08-.17-.16-.28-.21-.31-.14-.71-.04-1,.09-.7.3-1.21.99-1.23,1.75s.43,1.55,1.13,1.88c.48.23,1.03.24,1.49.51.42.25.71.67,1.02,1.04.5.6,1.46,1.28,2.2.63.09-.08-.04-.2-.13-.13-.76.67-1.66-.28-2.12-.84-.23-.29-.47-.58-.78-.79-.35-.24-.75-.32-1.15-.43-.85-.23-1.5-.91-1.5-1.84,0-.84.67-1.58,1.48-1.74.22-.04.45-.04.63.11.07.06.13.14.21.19.19.12.35.01.5-.12.09-.08-.04-.2-.13-.13h0Z" class="cls-9"></path>
      <path d="M125.88,118.09c-1.61-2.34-3.7-4.24-5.78-6.15-1.08-.99-2.16-1.99-3.15-3.07-1.09-1.19-1.97-2.5-2.89-3.82-.67-.98-1.42-1.93-2.43-2.58-.54-.34-1.13-.57-1.74-.75-.45-.13-1.21-.47-1.66-.36-.73.18-.67,1.48-.84,2.06-.46,1.58-1.27,3.08-2.65,4.02-.09.06,0,.22.09.15.85-.58,1.49-1.34,1.97-2.24.25-.46.45-.95.62-1.44s.17-1.33.43-1.76c.36-.59.75-.57,1.32-.43.33.08.67.17,1,.28.79.27,1.48.64,2.11,1.2,1.04.93,1.75,2.16,2.54,3.3,3.05,4.44,7.87,7.24,10.91,11.69.06.09.22,0,.15-.09h0Z" class="cls-9"></path>
      <path d="M106.63,109.83c.82-1.28.22-4.04,1.95-4.55,1.24-.37,2.49.68,3.34,1.46s1.61,1.58,2.37,2.42c3.24,3.6,6.31,7.35,9.46,11.03.07.09.2-.04.13-.13-1.83-2.14-3.65-4.27-5.48-6.41s-3.51-4.24-5.46-6.19c-1.05-1.05-3.03-3.17-4.73-2.26-1.52.81-.9,3.26-1.72,4.54-.06.1.09.19.15.09h0Z" class="cls-9"></path>
      <path d="M108.67,112.1c-.08-1.04-.07-2.63.58-3.5.75-1.01,1.98.73,2.47,1.26.76.82,1.51,1.63,2.27,2.45,1.47,1.59,2.96,3.17,4.41,4.78,1.31,1.45,2.57,3.05,2.78,5.06.01.11.19.11.18,0-.22-2.06-1.49-3.7-2.84-5.18-1.83-2.02-3.7-4.01-5.55-6.01-.44-.48-.88-.95-1.32-1.43-.37-.4-.72-.88-1.18-1.18s-.94-.37-1.3.05c-.74.87-.77,2.62-.69,3.7,0,.11.19.11.18,0h0Z" class="cls-9"></path>
      <path d="M119.6,129.94c.98-.74,2.04-1.54,3.29-1.75,1.05-.18,2.25.13,2.86,1.07.06.1.22,0,.15-.09-.6-.92-1.72-1.29-2.78-1.19-1.38.13-2.54,1-3.61,1.81-.09.07,0,.22.09.15h0Z" class="cls-9"></path>
      <path d="M118.3,128.87c.54-1.01,1.47-1.8,2.48-2.32,1.31-.67,2.63-.5,4.04-.31.61.08,1.21.17,1.82.21.44.03.95.08,1.36-.11.54-.25.86-.82,1.38-1.1.69-.37,1.45-.45,2.2-.26.11.03.16-.14.05-.17-1.05-.26-2.13-.02-2.94.71-.37.33-.63.65-1.15.75-.41.08-.89,0-1.3-.03-.82-.08-1.62-.22-2.44-.3-1.21-.12-2.23-.04-3.3.55-.96.53-1.85,1.31-2.37,2.29-.05.1.1.19.15.09h0Z" class="cls-9"></path>
      <path d="M133.46,123.04c-1.37-.3-2.8-.6-4.21-.4s-2.41,1.28-3.79,1.54c-2.26.42-4.75-.32-6.94.48-.11.04-.06.21.05.17,2.09-.76,4.51-.12,6.68-.43,1.23-.18,2.05-1.03,3.2-1.39,1.61-.52,3.35-.14,4.95.21.11.02.16-.15.05-.17h0Z" class="cls-9"></path>
      <path d="M131.59,117.25c-.18,1.11-1.08,1.94-2.02,2.47-.48.27-1,.48-1.55.6s-1.11.05-1.67.11c-.43.05-.84.18-1.15.5-.35.37-.48.9-.87,1.23-.76.64-2.12.69-3.04.43-.11-.03-.16.14-.05.17.88.26,1.98.19,2.8-.21.44-.22.67-.54.91-.96s.49-.74.96-.89c.34-.11.7-.11,1.05-.11,1.91-.01,4.44-1.18,4.78-3.28.02-.11-.15-.16-.17-.05h0Z" class="cls-9"></path>
    </g>
  </g>
</svg>